<?xml version="1.0" standalone="no"?>
<!DOCTYPE svg PUBLIC "-//W3C//DTD SVG 20010904//EN"
 "http://www.w3.org/TR/2001/REC-SVG-20010904/DTD/svg10.dtd">
<svg version="1.0" xmlns="http://www.w3.org/2000/svg"
 width="1200.000000pt" height="1200.000000pt" viewBox="0 0 1200.000000 1200.000000"
 preserveAspectRatio="xMidYMid meet">
<metadata>
Created by potrace 1.11, written by Peter Selinger 2001-2013
</metadata>
<g transform="translate(0.000000,1200.000000) scale(0.100000,-0.100000)"
fill="#000000" stroke="none">
<path d="M6978 8625 c-2 -2 -26 -5 -55 -9 -334 -39 -700 -223 -926 -464 -29
-30 -61 -65 -72 -76 -42 -43 -145 -194 -192 -281 -60 -112 -106 -228 -138
-348 -56 -210 -54 -118 -52 -2252 l2 -1970 532 0 533 0 2 1960 3 1960 22 57
c53 139 145 244 265 302 40 19 87 38 103 42 61 13 193 13 255 -2 182 -42 334
-195 384 -384 12 -47 15 -338 15 -1989 1 -1064 4 -1937 7 -1940 3 -3 243 -6
532 -6 l527 0 5 1960 5 1960 27 67 c62 156 157 251 313 313 87 35 215 43 314
19 203 -47 368 -223 405 -434 3 -14 5 -893 5 -1955 l1 -1930 530 0 530 0 -1
1965 c0 1178 -4 1991 -10 2030 -5 36 -11 79 -13 95 -8 57 -48 201 -81 285
-192 500 -607 864 -1122 986 -140 33 -175 36 -358 38 -292 1 -486 -43 -732
-169 -109 -56 -288 -178 -323 -219 -15 -19 -24 -20 -42 -3 -83 78 -222 171
-357 237 -224 110 -443 159 -703 158 -76 -1 -139 -2 -140 -3z"/>
<path d="M1180 5895 l0 -2665 1825 0 1825 0 0 535 0 535 -1290 0 -1290 0 0
530 0 530 873 0 872 0 0 535 0 535 -872 0 -873 0 0 530 0 530 1290 0 1290 0 0
535 0 535 -1825 0 -1825 0 0 -2665z"/>
</g>
</svg>
